<?xml version="1.0" encoding="utf-8"?>
<!-- Generator: Adobe Illustrator 16.0.4, SVG Export Plug-In . SVG Version: 6.00 Build 0)  -->
<!DOCTYPE svg PUBLIC "-//W3C//DTD SVG 1.1//EN" "http://www.w3.org/Graphics/SVG/1.1/DTD/svg11.dtd">
<svg version="1.1" id="Layer_1" xmlns="http://www.w3.org/2000/svg" xmlns:xlink="http://www.w3.org/1999/xlink" x="0px" y="0px"
	 width="388px" height="130px" viewBox="0 0 388 130" enable-background="new 0 0 388 130" xml:space="preserve">
<path fill="#EE4545" d="M140,129.68c0-21.572-140-4.764-140-21.566c0-7.032,0-86.571,0-108.098c23.423,12.975,140-0.525,140,0
	C140,9.812,140,137.208,140,129.68z"/>
<g>
	<g>
		<path fill="#FFFFFF" d="M33.234,90L26.68,30h3.36l4.033,39.924C34.186,70.988,34.663,77,35.504,88h0.168
			c0.168-3,0.643-9.113,1.428-18.076L41.05,30h3.277l-6.556,60H33.234z"/>
	</g>
	<g>
		<path fill="#FFFFFF" d="M47,90V30h7.496C59.089,30,61,31.554,61,35.305v17.9c0,3.698-1,5.685-5,5.967v0.168
			c4,0.28,5,2.101,5,5.462V90h-3V64.802C58,61.889,56.483,60,53.402,60H50v30H47z M50,58h3.57c2.969,0,4.43-1.433,4.43-4.122v-17.9
			C58,33.458,56.651,32,53.906,32H50V58z"/>
	</g>
	<g>
		<path fill="#FFFFFF" d="M66,84.133V35.896c0-4.37,2.404-6.556,7.168-6.556c4.537,0,6.832,2.186,6.832,6.556V46h-3v-9.601
			c0-3.025-1.535-4.537-3.831-4.537c-2.521,0-4.169,1.26-4.169,3.781v48.742c0,2.521,1.647,3.781,4.169,3.781
			c2.296,0,3.831-1.514,3.831-4.539V73h3v11.133c0,4.369-2.295,6.555-6.832,6.555C68.404,90.688,66,88.502,66,84.133z"/>
	</g>
	<g>
		<path fill="#FFFFFF" d="M84,90V30h12v2h-8v26h7v2h-7v30H84z"/>
	</g>
	<g>
		<path fill="#FFFFFF" d="M109.936,90.543L108.066,73h-8.346l-1.854,17h-3.034l6.724-60h4.79l6.975,60.607L109.936,90.543z
			 M100.066,70h7.712l-2.119-19.799C105.057,44.377,104.511,38,104.02,32h-0.164c-0.382,6-0.9,12.213-1.556,18.209L100.066,70z"/>
	</g>
</g>
<g>
	<path fill="#4D4D4D" d="M165.593,37.813h-5.017v-4.081h14.713v4.081h-5.04v12.721h-4.656V37.813z"/>
	<path fill="#4D4D4D" d="M176.991,33.012h4.561v6.312c0.841-1.08,2.04-2.064,3.889-2.064c2.76,0,4.416,1.824,4.416,4.776v8.497
		h-4.536v-7.032c0-1.44-0.744-2.209-1.848-2.209c-1.104,0-1.921,0.769-1.921,2.209v7.032h-4.561V33.012z"/>
	<path fill="#4D4D4D" d="M191.704,44.101v-0.048c0-3.792,2.713-6.793,6.553-6.793c4.465,0,6.528,3.289,6.528,7.104
		c0,0.288,0,0.624-0.023,0.937h-8.688c0.359,1.416,1.392,2.136,2.808,2.136c1.104,0,1.944-0.407,2.881-1.319l2.52,2.088
		c-1.248,1.584-3.048,2.641-5.616,2.641C194.585,50.846,191.704,48.11,191.704,44.101z M200.537,42.973
		c-0.168-1.44-1.032-2.353-2.28-2.353c-1.2,0-2.016,0.912-2.256,2.353H200.537z"/>
	<path fill="#4D4D4D" d="M212.344,33.732h5.185l3.816,10.633l3.84-10.633h5.089l-6.816,16.922h-4.32L212.344,33.732z"/>
	<path fill="#4D4D4D" d="M229.335,44.101v-0.048c0-3.792,2.713-6.793,6.553-6.793c4.465,0,6.528,3.289,6.528,7.104
		c0,0.288,0,0.624-0.023,0.937h-8.688c0.359,1.416,1.392,2.136,2.808,2.136c1.104,0,1.944-0.407,2.881-1.319l2.52,2.088
		c-1.248,1.584-3.048,2.641-5.616,2.641C232.216,50.846,229.335,48.11,229.335,44.101z M238.168,42.973
		c-0.168-1.44-1.032-2.353-2.28-2.353c-1.2,0-2.016,0.912-2.256,2.353H238.168z"/>
	<path fill="#4D4D4D" d="M244.383,37.548h4.561v2.616c0.744-1.776,1.944-2.928,4.104-2.832v4.801h-0.384
		c-2.376,0-3.721,1.368-3.721,4.344v4.057h-4.561V37.548z"/>
	<path fill="#4D4D4D" d="M254.654,37.548h4.561v1.824c0.841-1.08,2.04-2.112,3.889-2.112c2.76,0,4.416,1.824,4.416,4.776v8.497
		h-4.536v-7.032c0-1.44-0.744-2.209-1.848-2.209c-1.104,0-1.921,0.769-1.921,2.209v7.032h-4.561V37.548z"/>
	<path fill="#4D4D4D" d="M276.782,33.732h7.944c2.568,0,4.345,0.673,5.473,1.801c0.984,0.983,1.488,2.256,1.488,3.912v0.048
		c0,2.592-1.368,4.297-3.456,5.185l4.008,5.856h-5.353l-3.384-5.089h-2.064v5.089h-4.656V33.732z M284.535,41.797
		c1.56,0,2.496-0.769,2.496-1.992v-0.049c0-1.344-0.984-2.016-2.521-2.016h-3.072v4.057H284.535z"/>
	<path fill="#4D4D4D" d="M293.798,33.012h4.729v3.36h-4.729V33.012z M293.894,37.548h4.537v12.985h-4.537V37.548z"/>
	<path fill="#4D4D4D" d="M301.813,41.197h-1.512v-3.601h1.512v-0.264c0-1.488,0.336-2.592,1.104-3.36
		c0.792-0.792,1.848-1.128,3.408-1.128c1.368,0,2.256,0.144,2.952,0.36v3.216c-0.528-0.168-1.032-0.264-1.704-0.264
		c-0.84,0-1.296,0.384-1.296,1.224v0.312h3v3.504h-2.904v9.337h-4.561V41.197z M311.511,41.197h-1.513v-3.528h1.513v-0.336
		c0-1.488,0.336-2.592,1.104-3.36c0.792-0.792,1.849-1.128,3.408-1.128c1.368,0,2.257,0.144,2.952,0.36v3.216
		c-0.527-0.168-1.031-0.264-1.704-0.264c-0.84,0-1.296,0.384-1.296,1.224v0.312h3v3.504h-2.903v9.337h-4.561V41.197z"/>
	<path fill="#4D4D4D" d="M319.646,44.101v-0.048c0-3.792,2.713-6.793,6.553-6.793c4.465,0,6.528,3.289,6.528,7.104
		c0,0.288,0,0.624-0.023,0.937h-8.688c0.359,1.416,1.392,2.136,2.808,2.136c1.104,0,1.944-0.407,2.881-1.319l2.52,2.088
		c-1.248,1.584-3.048,2.641-5.616,2.641C322.526,50.846,319.646,48.11,319.646,44.101z M328.479,42.973
		c-0.168-1.44-1.032-2.353-2.28-2.353c-1.2,0-2.016,0.912-2.256,2.353H328.479z"/>
	<path fill="#4D4D4D" d="M160.937,64.181v-0.048c0-4.896,3.744-8.737,8.832-8.737c3.433,0,5.641,1.44,7.129,3.48l-3.504,2.712
		c-0.961-1.176-2.064-1.968-3.673-1.968c-2.353,0-4.008,2.017-4.008,4.464v0.049c0,2.52,1.655,4.488,4.008,4.488
		c1.752,0,2.784-0.816,3.792-2.04l3.505,2.497c-1.584,2.184-3.721,3.791-7.417,3.791C164.801,72.869,160.937,69.197,160.937,64.181z
		"/>
	<path fill="#4D4D4D" d="M178.023,66.101v-0.048c0-3.792,2.713-6.793,6.553-6.793c4.465,0,6.528,3.289,6.528,7.104
		c0,0.288,0,0.624-0.023,0.936h-8.688c0.359,1.416,1.392,2.137,2.808,2.137c1.104,0,1.944-0.408,2.881-1.32l2.52,2.088
		c-1.248,1.584-3.048,2.641-5.616,2.641C180.904,72.846,178.023,70.109,178.023,66.101z M186.856,64.973
		c-0.168-1.44-1.032-2.353-2.28-2.353c-1.2,0-2.016,0.912-2.256,2.353H186.856z"/>
	<path fill="#4D4D4D" d="M193.071,59.548h4.561v1.824c0.841-1.08,2.04-2.112,3.889-2.112c2.76,0,4.416,1.824,4.416,4.776v8.497
		H201.4v-7.032c0-1.44-0.744-2.209-1.848-2.209c-1.104,0-1.921,0.769-1.921,2.209v7.032h-4.561V59.548z"/>
	<path fill="#4D4D4D" d="M209.104,68.502v-5.305h-1.536v-3.648h1.536V56.26h4.536v3.288h3.024v3.648h-3.024v4.417
		c0,0.912,0.408,1.297,1.248,1.297c0.601,0,1.177-0.168,1.729-0.434v3.553c-0.816,0.457-1.896,0.768-3.168,0.768
		C210.712,72.797,209.104,71.598,209.104,68.502z"/>
	<path fill="#4D4D4D" d="M217.768,66.101v-0.048c0-3.792,2.713-6.793,6.553-6.793c4.465,0,6.528,3.289,6.528,7.104
		c0,0.288,0,0.624-0.023,0.936h-8.688c0.359,1.416,1.392,2.137,2.808,2.137c1.104,0,1.944-0.408,2.881-1.32l2.52,2.088
		c-1.248,1.584-3.048,2.641-5.616,2.641C220.648,72.846,217.768,70.109,217.768,66.101z M226.601,64.973
		c-0.168-1.44-1.032-2.353-2.28-2.353c-1.2,0-2.016,0.912-2.256,2.353H226.601z"/>
	<path fill="#4D4D4D" d="M232.815,59.548h4.561v2.616c0.744-1.776,1.944-2.928,4.104-2.832v4.801h-0.384
		c-2.376,0-3.721,1.368-3.721,4.343v4.057h-4.561V59.548z"/>
	<path fill="#4D4D4D" d="M250.215,62.933h-1.272v-3.337h1.272v-0.384c0-1.392,0.336-2.424,1.032-3.145
		c0.72-0.695,1.729-1.031,3.145-1.031c1.151,0,1.896,0.119,2.496,0.287v3.049c-0.408-0.096-0.816-0.168-1.32-0.168
		c-0.769,0-1.2,0.36-1.2,1.152v0.288h2.521v3.288h-2.448v9.6h-4.225V62.933z"/>
	<path fill="#4D4D4D" d="M257.438,66.246v-0.36c0-3.816,2.641-6.625,6.312-6.625c3.648,0,6.289,2.761,6.289,6.601v0.36
		c0,3.816-2.641,6.625-6.337,6.625C260.055,72.846,257.438,70.086,257.438,66.246z M265.911,66.173v-0.216
		c0-1.801-0.864-3.072-2.185-3.072c-1.367,0-2.16,1.248-2.16,3.048v0.216c0,1.8,0.864,3.072,2.185,3.072
		C265.095,69.221,265.911,67.973,265.911,66.173z"/>
	<path fill="#4D4D4D" d="M271.671,59.548h4.225v2.353c0.624-1.608,1.632-2.641,3.456-2.544v4.608h-0.288
		c-2.04,0-3.168,1.224-3.168,3.816v4.752h-4.225V59.548z"/>
	<path fill="#4D4D4D" d="M287.103,69.006v-6.073h-1.296v-3.385h1.296v-3.24h4.2v3.24h2.545v3.385h-2.545v5.112
		c0,0.768,0.36,1.08,1.08,1.08c0.48,0,0.96-0.119,1.44-0.336v3.312c-0.744,0.408-1.729,0.672-2.856,0.672
		C288.614,72.773,287.103,71.766,287.103,69.006z"/>
	<path fill="#4D4D4D" d="M295.479,55.156h4.225v6.097c0.72-1.032,1.775-1.968,3.432-1.968c2.425,0,3.841,1.656,3.841,4.296v8.953
		h-4.225v-7.656c0-1.2-0.6-1.849-1.488-1.849c-0.912,0-1.56,0.648-1.56,1.849v7.656h-4.225V55.156z"/>
	<path fill="#4D4D4D" d="M308.51,66.221v-0.264c0-3.913,2.448-6.697,5.881-6.697c3.841,0,5.761,2.977,5.761,6.937
		c0,0.168,0,0.864-0.024,1.2h-7.536c0.312,1.393,1.248,2.113,2.496,2.113c1.032,0,1.872-0.48,2.664-1.225l2.017,2.4
		c-1.225,1.297-2.809,2.137-4.969,2.137C311.126,72.822,308.51,70.277,308.51,66.221z M316.215,65.021
		c-0.12-1.608-0.792-2.496-1.824-2.496c-1.008,0-1.68,0.84-1.848,2.496H316.215z"/>
	<path fill="#4D4D4D" d="M334.694,55.612h4.488l7.152,16.921h-4.992l-1.2-3.023h-6.505l-1.2,3.023h-4.872L334.694,55.612z
		 M338.774,65.885l-1.872-4.753l-1.896,4.753H338.774z"/>
	<path fill="#4D4D4D" d="M347.701,59.548h4.561v2.616c0.744-1.776,1.944-2.928,4.104-2.832v4.801h-0.384
		c-2.376,0-3.721,1.368-3.721,4.343v4.057h-4.561V59.548z"/>
	<path fill="#4D4D4D" d="M358.789,68.502v-5.305h-1.536v-3.648h1.536V56.26h4.536v3.288h3.024v3.648h-3.024v4.417
		c0,0.912,0.408,1.297,1.248,1.297c0.601,0,1.177-0.168,1.729-0.434v3.553c-0.816,0.457-1.896,0.768-3.168,0.768
		C360.397,72.797,358.789,71.598,358.789,68.502z"/>
	<path fill="#4D4D4D" d="M367.356,70.877l1.704-2.736c1.488,0.984,3.097,1.488,4.44,1.488c0.792,0,1.177-0.24,1.177-0.695v-0.049
		c0-0.527-0.744-0.744-2.112-1.127c-2.568-0.672-4.608-1.537-4.608-4.128v-0.049c0-2.76,2.208-4.296,5.208-4.296
		c1.896,0,3.864,0.552,5.353,1.512l-1.56,2.881c-1.345-0.769-2.809-1.225-3.841-1.225c-0.696,0-1.056,0.265-1.056,0.648v0.048
		c0,0.504,0.768,0.744,2.112,1.152c2.567,0.72,4.608,1.607,4.608,4.128v0.047c0,2.857-2.137,4.346-5.305,4.346
		C371.293,72.822,369.133,72.174,367.356,70.877z"/>
	<path fill="#999999" d="M160.816,88.164v-0.031c0-1.697,1.456-2.656,3.569-2.656c1.137,0,1.921,0.143,2.705,0.352v-0.352
		c0-1.65-1.009-2.498-2.689-2.498c-0.992,0-1.809,0.271-2.561,0.656l-0.288-0.688c0.896-0.416,1.776-0.705,2.897-0.705
		c1.104,0,1.984,0.305,2.576,0.896c0.545,0.545,0.833,1.297,0.833,2.305v5.09h-0.769v-1.359c-0.561,0.783-1.568,1.553-3.121,1.553
		C162.449,90.727,160.816,89.861,160.816,88.164z M167.106,87.477v-0.928c-0.688-0.178-1.601-0.369-2.769-0.369
		c-1.729,0-2.689,0.768-2.689,1.904v0.033c0,1.184,1.121,1.873,2.369,1.873C165.683,89.99,167.106,88.965,167.106,87.477z"/>
	<path fill="#999999" d="M171.024,88.438V83.09h-1.185v-0.719h1.185v-2.609h0.784v2.609h2.865v0.719h-2.865v5.268
		c0,1.168,0.688,1.584,1.633,1.584c0.4,0,0.736-0.08,1.2-0.287v0.734c-0.416,0.193-0.816,0.289-1.328,0.289
		C172.049,90.678,171.024,89.99,171.024,88.438z"/>
	<path fill="#999999" d="M180.88,88.9l1.457-1.744c1.008,0.832,2.064,1.361,3.345,1.361c1.009,0,1.617-0.4,1.617-1.057v-0.033
		c0-0.623-0.385-0.943-2.257-1.424c-2.257-0.576-3.714-1.201-3.714-3.426v-0.031c0-2.033,1.633-3.377,3.922-3.377
		c1.633,0,3.025,0.512,4.161,1.424l-1.28,1.857c-0.992-0.689-1.969-1.105-2.913-1.105s-1.44,0.432-1.44,0.977v0.031
		c0,0.736,0.479,0.977,2.417,1.473c2.272,0.594,3.553,1.41,3.553,3.361v0.033c0,2.225-1.696,3.473-4.113,3.473
		C183.938,90.693,182.225,90.102,180.88,88.9z"/>
	<path fill="#999999" d="M191.633,78.85h2.433v4.32c0.561-0.719,1.28-1.375,2.513-1.375c1.841,0,2.913,1.215,2.913,3.184v5.555
		h-2.433v-4.785c0-1.152-0.544-1.744-1.473-1.744s-1.521,0.592-1.521,1.744v4.785h-2.433V78.85z"/>
	<path fill="#999999" d="M201.088,88.068v-0.031c0-1.873,1.425-2.738,3.457-2.738c0.865,0,1.489,0.145,2.098,0.354v-0.145
		c0-1.008-0.625-1.568-1.841-1.568c-0.929,0-1.585,0.176-2.369,0.463l-0.608-1.855c0.944-0.416,1.873-0.689,3.329-0.689
		c1.329,0,2.289,0.354,2.897,0.961c0.641,0.641,0.929,1.584,0.929,2.738v4.977h-2.354v-0.928c-0.592,0.656-1.408,1.088-2.593,1.088
		C202.416,90.693,201.088,89.766,201.088,88.068z M206.674,87.508v-0.432c-0.416-0.191-0.96-0.32-1.553-0.32
		c-1.04,0-1.681,0.416-1.681,1.186v0.031c0,0.656,0.545,1.041,1.329,1.041C205.906,89.014,206.674,88.389,206.674,87.508z"/>
	<path fill="#999999" d="M210.048,81.955h2.466l1.376,5.201l1.617-5.234h2.097l1.633,5.25l1.408-5.217h2.417l-2.673,8.643h-2.193
		l-1.648-5.266l-1.681,5.266h-2.177L210.048,81.955z"/>
	<path fill="#999999" d="M224.528,81.955h2.433v1.215c0.561-0.719,1.28-1.375,2.513-1.375c1.841,0,2.913,1.215,2.913,3.184v5.555
		h-2.433v-4.785c0-1.152-0.544-1.744-1.473-1.744s-1.521,0.592-1.521,1.744v4.785h-2.433V81.955z"/>
	<path fill="#999999" d="M234.08,86.291V86.26c0-2.449,1.745-4.465,4.242-4.465c2.865,0,4.178,2.225,4.178,4.656
		c0,0.193-0.017,0.418-0.032,0.641h-5.971c0.24,1.105,1.009,1.682,2.098,1.682c0.815,0,1.408-0.256,2.08-0.881l1.393,1.232
		c-0.8,0.992-1.952,1.602-3.505,1.602C235.985,90.727,234.08,88.918,234.08,86.291z M240.131,85.572
		c-0.144-1.09-0.784-1.826-1.809-1.826c-1.009,0-1.665,0.721-1.856,1.826H240.131z"/>
	<path fill="#999999" d="M243.887,86.291V86.26c0-2.449,1.745-4.465,4.242-4.465c2.865,0,4.178,2.225,4.178,4.656
		c0,0.193-0.017,0.418-0.032,0.641h-5.971c0.24,1.105,1.009,1.682,2.098,1.682c0.815,0,1.408-0.256,2.08-0.881l1.393,1.232
		c-0.8,0.992-1.952,1.602-3.505,1.602C245.792,90.727,243.887,88.918,243.887,86.291z M249.938,85.572
		c-0.144-1.09-0.784-1.826-1.809-1.826c-1.009,0-1.665,0.721-1.856,1.826H249.938z"/>
	<path fill="#999999" d="M258.398,88.9l1.457-1.744c1.008,0.832,2.064,1.361,3.345,1.361c1.009,0,1.617-0.4,1.617-1.057v-0.033
		c0-0.623-0.385-0.943-2.257-1.424c-2.257-0.576-3.714-1.201-3.714-3.426v-0.031c0-2.033,1.633-3.377,3.922-3.377
		c1.633,0,3.025,0.512,4.161,1.424l-1.28,1.857c-0.992-0.689-1.969-1.105-2.913-1.105s-1.44,0.432-1.44,0.977v0.031
		c0,0.736,0.479,0.977,2.417,1.473c2.272,0.594,3.553,1.41,3.553,3.361v0.033c0,2.225-1.696,3.473-4.113,3.473
		C261.456,90.693,259.743,90.102,258.398,88.9z"/>
	<path fill="#999999" d="M269.472,88.102v-4.066h-1.024v-2.08h1.024v-2.193h2.434v2.193h2.017v2.08h-2.017v3.666
		c0,0.561,0.24,0.832,0.784,0.832c0.448,0,0.849-0.113,1.2-0.305v1.953c-0.512,0.305-1.104,0.496-1.921,0.496
		C270.48,90.678,269.472,90.086,269.472,88.102z"/>
	<path fill="#999999" d="M275.199,88.068v-0.031c0-1.873,1.425-2.738,3.457-2.738c0.865,0,1.489,0.145,2.098,0.354v-0.145
		c0-1.008-0.625-1.568-1.841-1.568c-0.929,0-1.585,0.176-2.369,0.463l-0.608-1.855c0.944-0.416,1.873-0.689,3.329-0.689
		c1.329,0,2.289,0.354,2.897,0.961c0.641,0.641,0.929,1.584,0.929,2.738v4.977h-2.354v-0.928c-0.592,0.656-1.408,1.088-2.593,1.088
		C276.527,90.693,275.199,89.766,275.199,88.068z M280.785,87.508v-0.432c-0.416-0.191-0.96-0.32-1.553-0.32
		c-1.04,0-1.681,0.416-1.681,1.186v0.031c0,0.656,0.545,1.041,1.329,1.041C280.018,89.014,280.785,88.389,280.785,87.508z"/>
	<path fill="#999999" d="M285.503,88.102v-4.066h-1.024v-2.08h1.024v-2.193h2.434v2.193h2.017v2.08h-2.017v3.666
		c0,0.561,0.24,0.832,0.784,0.832c0.448,0,0.849-0.113,1.2-0.305v1.953c-0.512,0.305-1.104,0.496-1.921,0.496
		C286.512,90.678,285.503,90.086,285.503,88.102z"/>
	<path fill="#999999" d="M291.086,86.291V86.26c0-2.449,1.745-4.465,4.242-4.465c2.865,0,4.178,2.225,4.178,4.656
		c0,0.193-0.017,0.418-0.032,0.641h-5.971c0.24,1.105,1.009,1.682,2.098,1.682c0.815,0,1.408-0.256,2.08-0.881l1.393,1.232
		c-0.8,0.992-1.952,1.602-3.505,1.602C292.991,90.727,291.086,88.918,291.086,86.291z M297.137,85.572
		c-0.144-1.09-0.784-1.826-1.809-1.826c-1.009,0-1.665,0.721-1.856,1.826H297.137z"/>
	<path fill="#999999" d="M306.19,85.732V79.33h2.465v6.338c0,1.824,0.912,2.77,2.417,2.77c1.504,0,2.417-0.912,2.417-2.689V79.33
		h2.465v6.322c0,3.393-1.905,5.057-4.914,5.057C308.03,90.709,306.19,89.029,306.19,85.732z"/>
	<path fill="#999999" d="M318.206,81.955h2.433v1.215c0.561-0.719,1.28-1.375,2.513-1.375c1.841,0,2.913,1.215,2.913,3.184v5.555
		h-2.433v-4.785c0-1.152-0.544-1.744-1.473-1.744s-1.521,0.592-1.521,1.744v4.785h-2.433V81.955z"/>
	<path fill="#999999" d="M328.222,78.85h2.561v2.16h-2.561V78.85z M328.285,81.955h2.434v8.578h-2.434V81.955z"/>
	<path fill="#999999" d="M332.237,81.955h2.577l1.921,5.746l1.937-5.746h2.529l-3.378,8.643h-2.209L332.237,81.955z"/>
	<path fill="#999999" d="M341.709,86.291V86.26c0-2.449,1.745-4.465,4.242-4.465c2.865,0,4.178,2.225,4.178,4.656
		c0,0.193-0.017,0.418-0.032,0.641h-5.971c0.24,1.105,1.009,1.682,2.098,1.682c0.815,0,1.408-0.256,2.08-0.881l1.393,1.232
		c-0.8,0.992-1.952,1.602-3.505,1.602C343.614,90.727,341.709,88.918,341.709,86.291z M347.76,85.572
		c-0.144-1.09-0.784-1.826-1.809-1.826c-1.009,0-1.665,0.721-1.856,1.826H347.76z"/>
	<path fill="#999999" d="M351.934,81.955h2.433v1.729c0.496-1.186,1.297-1.953,2.737-1.889v2.545h-0.128
		c-1.617,0-2.609,0.977-2.609,3.025v3.168h-2.433V81.955z"/>
	<path fill="#999999" d="M357.949,89.396l1.041-1.6c0.928,0.672,1.904,1.023,2.705,1.023c0.704,0,1.024-0.256,1.024-0.639v-0.033
		c0-0.527-0.833-0.703-1.777-0.992c-1.2-0.352-2.561-0.912-2.561-2.576v-0.033c0-1.744,1.408-2.721,3.137-2.721
		c1.089,0,2.273,0.367,3.201,0.992l-0.928,1.682c-0.849-0.496-1.697-0.801-2.321-0.801c-0.592,0-0.896,0.256-0.896,0.592v0.031
		c0,0.48,0.816,0.705,1.745,1.025c1.2,0.4,2.593,0.977,2.593,2.545v0.031c0,1.906-1.425,2.77-3.281,2.77
		C360.431,90.693,359.086,90.293,357.949,89.396z"/>
	<path fill="#999999" d="M366.702,78.85h2.561v2.16h-2.561V78.85z M366.766,81.955h2.434v8.578h-2.434V81.955z"/>
	<path fill="#999999" d="M371.886,88.102v-4.066h-1.024v-2.08h1.024v-2.193h2.434v2.193h2.017v2.08h-2.017v3.666
		c0,0.561,0.24,0.832,0.784,0.832c0.448,0,0.849-0.113,1.2-0.305v1.953c-0.512,0.305-1.104,0.496-1.921,0.496
		C372.895,90.678,371.886,90.086,371.886,88.102z"/>
	<path fill="#999999" d="M383.76,81.955h2.529l-3.298,8.787c-0.656,1.744-1.36,2.4-2.816,2.4c-0.881,0-1.537-0.225-2.161-0.592
		l0.816-1.762c0.32,0.193,0.72,0.336,1.04,0.336c0.416,0,0.641-0.127,0.849-0.559l-3.361-8.611h2.577l1.952,5.842L383.76,81.955z"/>
</g>
</svg>
